#N canvas 0 22 458 308 10;
#X obj 140 258 dac~;
#X obj 144 38 adc~ 1;
#X text 226 37 micro (in);
#X text 206 260 haut-parleur ou casque (out);
#X obj 209 137 osc~ 12800;
#X text 267 74 passe-bas 12800Hz;
#X text 302 144 modulation amplitude porteuse 12800Hz;
#X obj 142 167 *~;
#X text 277 212;
#X obj 144 94 lop~ 12800;
#X connect 1 0 9 0;
#X connect 4 0 7 1;
#X connect 7 0 0 0;
#X connect 7 0 0 1;
#X connect 9 0 7 0;
