#N canvas 342 335 565 310 10;
#X obj 147 84 adc~;
#X text 225 76 entree micro;
#X text 239 266 sortie casque;
#X obj 146 267 dac~;
#X obj 147 150 *~;
#X floatatom 181 119 5 0 0 0 - - -;
#X text 234 133 dephasage 180 degres;
#X text 68 1 Casque antibruit actif;
#X text 69 15 Noise-cancelling headphone;
#X text 112 28 Active vibration control;
#X text 113 42 Active noise control or active noise reduction;
#X connect 0 0 4 0;
#X connect 0 1 4 0;
#X connect 4 0 3 0;
#X connect 4 0 3 1;
#X connect 5 0 4 1;
