#N canvas 306 144 662 327 10;
#X obj 154 53 osc~ 440;
#X obj 154 243 dac~ 1;
#X obj 225 88 tgl 15 0 empty empty empty 0 -6 0 8 -262144 -1 -1 0 1
;
#X obj 154 169 *~;
#X connect 0 0 3 0;
#X connect 2 0 3 1;
#X connect 3 0 1 0;
