#N canvas 157 83 568 615 10;
#X msg 42 99 bang;
#X floatatom 42 184 10 0 0 0 - - -;
#X obj 42 267 bng 15 250 50 0 empty empty empty 17 7 0 10 -262144 -1
-1;
#X obj 42 321 tabplay~ sample;
#X obj 42 454 *~;
#X obj 42 371 lop~ 12800;
#X obj 66 429 osc~ 12800;
#X obj 42 499 lop~ 12800;
#X obj 31 582 dac~;
#X text 67 267 lecture;
#X obj 128 99 table sample;
#N canvas 460 54 277 362 charge_sample 1;
#X obj 62 120 openpanel;
#X obj 62 212 soundfiler;
#X floatatom 62 259 5 0 0 0 - - -;
#X obj 62 73 inlet;
#X obj 52 299 outlet;
#X msg 62 159 read -resize \$1 sample;
#X text 26 15 -- sous-patch charge sample --;
#X connect 0 0 5 0;
#X connect 1 0 2 0;
#X connect 2 0 4 0;
#X connect 3 0 0 0;
#X connect 5 0 1 0;
#X restore 42 142 pd charge_sample;
#X text 37 43 sous-patch qui charge l'extrait audio dans le tableau
sample;
#X text 130 370 filtrage PB;
#X text 155 431 demodulation;
#X text 134 499 filtrage PB;
#X text 89 582 sortie audio;
#X text 41 239 Chaine de traitement;
#X text 204 8 -- decodeur audio type CANAL+ --;
#X connect 0 0 11 0;
#X connect 2 0 3 0;
#X connect 3 0 5 0;
#X connect 4 0 7 0;
#X connect 5 0 4 0;
#X connect 6 0 4 1;
#X connect 7 0 8 0;
#X connect 7 0 8 1;
#X connect 11 0 1 0;
